<svg width="26" height="26" fill="none" xmlns="http://www.w3.org/2000/svg"><g clip-path="url(#clip0_1_186)"><path d="M-6.098 32.469h37.143v-39H-6.098v39z" fill="#000"/><path d="M22.558 18.369c0 1.625-.45 2.934-1.347 3.825-.9.891-2.147 1.364-3.645 1.364H7.382c-1.499 0-2.747-.473-3.645-1.364-.898-.943-1.35-2.253-1.35-3.878V7.569c0-1.573 4.041-6.656 4.939-7.6C2.986-.03.093 3.01.093 7.569v10.745c0 2.255.698 4.195 2.096 5.61 1.348 1.362 3.145 2.045 5.193 2.045h10.184c2.146 0 3.943-.735 5.24-2.045 1.35-1.363 2.049-3.302 2.049-5.556v-10.8c0-2.2-.7-4.088-1.997-5.45C21.56.702 19.71-.032 17.616-.032H7.33L3.737 3.745c.849-.892 2.146-1.364 3.645-1.364h10.283c1.498 0 2.746.472 3.645 1.417.85.943 1.347 2.253 1.347 3.773V18.37h-.099zM19.013 7.726c.194.006.387-.03.567-.103.18-.073.345-.184.484-.326.139-.142.25-.311.325-.498a1.586 1.586 0 000-1.184 1.525 1.525 0 00-.325-.498 1.442 1.442 0 00-.484-.327 1.386 1.386 0 00-.567-.102 1.416 1.416 0 00-.996.46 1.56 1.56 0 00-.409 1.059c0 .395.147.775.41 1.059.262.283.62.448.995.46zm-6.54 9.542a4.017 4.017 0 01-2.889-1.265 4.43 4.43 0 01-1.205-3.034 4.43 4.43 0 011.205-3.035 4.017 4.017 0 012.89-1.264 4.017 4.017 0 012.89 1.264 4.43 4.43 0 011.204 3.035 4.43 4.43 0 01-1.205 3.033 4.017 4.017 0 01-2.89 1.265zm0-11.009c-3.493 0-6.389 2.988-6.389 6.71a6.983 6.983 0 00.482 2.57c.32.815.79 1.556 1.384 2.18a6.36 6.36 0 002.076 1.453 6.108 6.108 0 002.448.506c3.544 0 6.388-3.04 6.388-6.708 0-3.671-2.894-6.71-6.388-6.71z" fill="#fff"/></g><defs><clipPath id="clip0_1_186"><path fill="#fff" d="M0 0h26v26H0z"/></clipPath></defs></svg>