<svg width="26" height="26" fill="none" xmlns="http://www.w3.org/2000/svg"><g clip-path="url(#clip0_1_192)"><path d="M26 3.077a9.03 9.03 0 01-3.061 1.03c1.101-.811 1.944-2.099 2.345-3.63a9.612 9.612 0 01-3.386 1.594C20.923.796 19.537.002 18.003.002c-2.944 0-5.33 2.937-5.33 6.562 0 .512.045 1.012.136 1.493-4.432-.275-8.361-2.887-10.99-6.861a7.758 7.758 0 00-.721 3.3c0 2.274.939 4.286 2.37 5.46-.873-.03-1.695-.33-2.416-.818v.081c0 3.18 1.838 5.837 4.28 6.437a4.414 4.414 0 01-2.412.112c.68 2.606 2.65 4.505 4.98 4.561-1.827 1.763-4.122 2.813-6.625 2.813A8.64 8.64 0 010 23.047c2.366 1.868 5.168 2.95 8.18 2.95 9.808 0 15.175-10.005 15.175-18.678 0-.288-.005-.57-.015-.85 1.04-.919 1.944-2.075 2.66-3.393z" fill="#fff"/></g><defs><clipPath id="clip0_1_192"><path fill="#fff" d="M0 0h26v26H0z"/></clipPath></defs></svg>