<svg width="129" height="41" fill="none" xmlns="http://www.w3.org/2000/svg"><g clip-path="url(#clip0_1_174)"><path d="M94.25 33.23c-3.173 0-5.647-1.307-7.234-3.688v3.22h-6.582V.663h6.582v12.401c1.587-2.38 4.06-3.688 7.235-3.688 5.928 0 10.643 5.322 10.643 11.903 0 6.582-4.715 11.95-10.643 11.95l-.001.001zm-1.493-17.598c-3.221 0-5.741 2.473-5.741 5.647 0 3.222 2.52 5.648 5.74 5.648 3.176 0 5.743-2.473 5.743-5.648 0-3.127-2.567-5.647-5.742-5.647zm35.321-5.789l-12.744 30.529h-7.048l4.247-9.476-8.822-21.053h7.095l5.088 13.397 5.09-13.397h7.094zm-50.683 22.92h-6.582V.663h6.582v32.1zm-9.201 0h-6.208v-2.847c-1.354 2.24-3.501 3.314-6.535 3.314-4.061 0-7.096-3.034-7.096-6.862 0-4.808 4.248-7.33 10.69-7.33h2.94v-.513c0-2.054-1.773-3.782-4.387-3.782-2.474 0-4.901 1.355-6.162 2.942l-3.594-3.828c2.007-2.615 5.928-4.482 9.756-4.482 6.489 0 10.596 3.782 10.596 9.29v14.098zm-6.208-9.616h-3.268c-2.894 0-4.621.887-4.621 2.614 0 1.4 1.12 2.334 2.894 2.334 2.894 0 4.995-1.96 4.995-4.248v-.7zm-15.969-3.361v12.977h-6.582V20.626c0-2.987-1.82-4.948-4.528-4.948-2.754 0-4.528 1.961-4.528 4.948v12.137h-6.582V.663h6.582v12.168c1.447-2.194 3.594-3.455 6.21-3.455 5.88 0 9.428 3.922 9.428 10.41zM21.21 32.483c-.84.42-2.148.653-3.362.653-5.368 0-9.149-3.408-9.149-9.336V.663h6.582v9.18h5.648v6.255h-5.648v7.375c0 2.148 1.633 3.501 3.547 3.501.654 0 1.541-.139 2.054-.326l.328 5.835z" fill="#FCFCFA"/><path d="M7.435 12.97a3.595 3.595 0 11-7.19-.001 3.595 3.595 0 017.19.002v-.001z" fill="#CC3"/></g><defs><clipPath id="clip0_1_174"><path fill="#fff" d="M0 0h129v41H0z"/></clipPath></defs></svg>